<svg xmlns="http://www.w3.org/2000/svg" width="1200" height="900" viewBox="0 0 1200 900" role="img" aria-labelledby="title desc">
  <title id="title">WPM Gestão Interna cover</title>
  <desc id="desc">Console operacional com cards de atendimento, NPS, escala e passagem de turno.</desc>
  <rect width="1200" height="900" fill="#050816"/>
  <rect x="72" y="72" width="1056" height="756" rx="32" fill="#0b1020" stroke="#10b981" stroke-opacity=".65" stroke-width="3"/>
  <rect x="112" y="116" width="976" height="76" rx="16" fill="#101827"/>
  <circle cx="152" cy="154" r="11" fill="#10b981"/>
  <circle cx="188" cy="154" r="11" fill="#f59e0b"/>
  <circle cx="224" cy="154" r="11" fill="#a78bfa"/>
  <text x="270" y="164" fill="#d1fae5" font-family="Inter, Arial, sans-serif" font-size="28" font-weight="700">WPM Gestão Interna</text>
  <text x="112" y="260" fill="#ecfeff" font-family="Inter, Arial, sans-serif" font-size="58" font-weight="800">Operação de recepção</text>
  <text x="112" y="314" fill="#a7f3d0" font-family="Inter, Arial, sans-serif" font-size="28">Dashboard, pendências, escala e passagem de turno</text>
  <g fill="#111c2d" stroke="#1fce8a" stroke-opacity=".55" stroke-width="2">
    <rect x="112" y="390" width="292" height="156" rx="22"/>
    <rect x="454" y="390" width="292" height="156" rx="22"/>
    <rect x="796" y="390" width="292" height="156" rx="22"/>
    <rect x="112" y="594" width="634" height="164" rx="22"/>
    <rect x="796" y="594" width="292" height="164" rx="22"/>
  </g>
  <g font-family="Inter, Arial, sans-serif">
    <text x="144" y="440" fill="#a7f3d0" font-size="22" font-weight="700">ATENDIMENTOS</text>
    <text x="144" y="503" fill="#ecfeff" font-size="52" font-weight="800">128</text>
    <text x="486" y="440" fill="#a7f3d0" font-size="22" font-weight="700">NPS</text>
    <text x="486" y="503" fill="#ecfeff" font-size="52" font-weight="800">92%</text>
    <text x="828" y="440" fill="#a7f3d0" font-size="22" font-weight="700">PENDÊNCIAS</text>
    <text x="828" y="503" fill="#ecfeff" font-size="52" font-weight="800">07</text>
    <text x="144" y="652" fill="#a7f3d0" font-size="22" font-weight="700">PASSAGEM DE TURNO</text>
    <rect x="144" y="688" width="520" height="14" rx="7" fill="#10b981" opacity=".9"/>
    <rect x="144" y="724" width="388" height="14" rx="7" fill="#38bdf8" opacity=".65"/>
    <text x="828" y="652" fill="#a7f3d0" font-size="22" font-weight="700">PWA</text>
    <text x="828" y="714" fill="#ecfeff" font-size="40" font-weight="800">offline</text>
  </g>
</svg>
